<?xml version="1.0" standalone="no"?>
<!DOCTYPE svg PUBLIC "-//W3C//DTD SVG 20010904//EN"
 "http://www.w3.org/TR/2001/REC-SVG-20010904/DTD/svg10.dtd">
<svg version="1.0" xmlns="http://www.w3.org/2000/svg"
 width="626.000000pt" height="626.000000pt" viewBox="0 0 626.000000 626.000000"
 preserveAspectRatio="xMidYMid meet">
<metadata>
Created by potrace 1.14, written by Peter Selinger 2001-2017
</metadata>
<g transform="translate(0.000000,626.000000) scale(0.100000,-0.100000)"
fill="#000000" stroke="none">
<path d="M2835 6143 c-126 -7 -239 -19 -250 -25 -11 -6 -53 -14 -95 -19 -41
-4 -95 -14 -120 -22 -25 -8 -72 -20 -105 -27 -33 -7 -64 -17 -70 -22 -5 -4
-22 -8 -37 -8 -15 0 -28 -3 -28 -7 0 -15 -55 -33 -102 -33 -36 0 -48 -4 -48
-15 0 -8 -6 -15 -13 -15 -7 0 -30 -9 -52 -20 -22 -11 -43 -20 -48 -20 -4 0
-27 -9 -49 -20 -23 -11 -48 -20 -55 -20 -7 0 -13 -3 -13 -8 0 -4 -15 -13 -32
-21 -18 -8 -45 -22 -60 -33 -14 -10 -33 -18 -42 -18 -9 0 -16 -4 -16 -9 0 -5
-15 -15 -32 -22 -18 -7 -38 -18 -45 -24 -36 -30 -43 -35 -53 -35 -5 0 -10 -4
-10 -10 0 -5 -18 -10 -39 -10 -33 0 -40 -4 -43 -22 -2 -14 -17 -31 -40 -43
-21 -11 -38 -26 -38 -32 0 -7 -7 -13 -15 -13 -8 0 -19 -9 -25 -20 -6 -11 -17
-20 -25 -20 -8 0 -15 -4 -15 -10 0 -5 -7 -7 -15 -4 -8 4 -15 1 -15 -5 0 -6
-14 -24 -31 -39 -17 -15 -46 -42 -64 -59 -18 -18 -38 -33 -43 -33 -6 0 -14 -9
-17 -20 -3 -11 -13 -20 -21 -20 -8 0 -14 -9 -14 -20 0 -13 -7 -20 -20 -20 -11
0 -20 -5 -20 -11 0 -6 -25 -35 -55 -64 -30 -29 -55 -58 -55 -64 0 -6 -9 -11
-20 -11 -13 0 -20 -7 -20 -20 0 -11 -7 -20 -15 -20 -8 0 -15 -7 -15 -15 0 -7
-6 -18 -13 -22 -8 -4 -22 -21 -33 -38 -10 -16 -24 -36 -31 -43 -7 -7 -13 -18
-13 -23 0 -5 -7 -9 -15 -9 -8 0 -15 -8 -15 -18 0 -9 -9 -23 -20 -30 -11 -7
-20 -18 -20 -25 0 -7 -9 -19 -20 -27 -11 -8 -20 -22 -20 -31 0 -10 -3 -19 -7
-21 -9 -3 -63 -84 -63 -93 0 -3 -9 -15 -20 -27 -11 -12 -20 -31 -20 -41 0 -11
-8 -27 -18 -36 -10 -9 -31 -43 -47 -76 -15 -33 -31 -62 -34 -65 -4 -3 -13 -24
-19 -47 -7 -24 -17 -43 -22 -43 -6 0 -10 -13 -10 -28 0 -16 -8 -34 -20 -42
-12 -8 -20 -26 -20 -42 0 -15 -4 -30 -10 -33 -5 -3 -10 -13 -10 -21 0 -8 -9
-33 -19 -54 -10 -22 -24 -62 -31 -89 -6 -27 -18 -52 -26 -55 -10 -4 -14 -24
-14 -75 0 -61 -3 -70 -20 -76 -17 -6 -20 -15 -20 -75 0 -38 -4 -71 -9 -74 -35
-22 -78 -685 -50 -776 6 -19 14 -87 19 -150 12 -141 20 -190 31 -190 5 0 9
-22 9 -50 0 -27 5 -50 10 -50 6 0 10 -13 10 -29 0 -17 4 -33 10 -36 5 -3 10
-24 10 -46 0 -21 4 -39 9 -39 8 0 12 -17 28 -117 3 -18 9 -33 13 -33 4 0 16
-34 25 -75 10 -41 22 -75 26 -75 5 0 9 -9 9 -20 0 -11 5 -20 10 -20 6 0 10 -9
10 -20 0 -11 5 -20 10 -20 6 0 10 -14 10 -31 0 -17 7 -37 15 -45 8 -9 18 -27
22 -42 3 -15 12 -33 20 -40 7 -7 13 -23 13 -35 0 -12 9 -33 20 -47 11 -14 20
-32 20 -40 0 -9 9 -22 20 -30 12 -8 20 -26 20 -42 0 -15 5 -28 10 -28 6 0 10
-5 10 -10 0 -6 11 -23 26 -38 14 -15 28 -40 31 -55 3 -16 14 -34 24 -40 11 -7
19 -18 19 -25 0 -7 6 -15 13 -18 8 -3 20 -20 27 -39 8 -19 17 -35 22 -35 4 0
8 -7 8 -15 0 -8 9 -19 20 -25 11 -6 20 -15 20 -21 0 -5 16 -25 35 -45 19 -19
35 -44 35 -55 0 -11 8 -23 17 -26 22 -9 63 -49 63 -62 0 -5 9 -13 20 -16 11
-3 20 -13 20 -21 0 -8 7 -14 15 -14 8 0 15 -9 15 -20 0 -11 7 -20 15 -20 8 0
19 -9 25 -20 6 -11 17 -20 24 -20 8 0 16 -9 19 -20 3 -11 12 -20 21 -20 9 0
16 -7 16 -15 0 -8 7 -15 15 -15 8 0 15 -7 15 -15 0 -9 8 -19 18 -22 9 -4 28
-19 42 -33 14 -15 36 -33 50 -40 14 -7 31 -21 38 -32 7 -10 19 -18 25 -18 7 0
27 -14 46 -30 19 -17 45 -33 57 -36 13 -3 26 -15 29 -25 4 -10 14 -19 24 -19
9 0 27 -9 39 -20 12 -11 28 -20 37 -20 8 0 15 -6 15 -14 0 -8 15 -17 36 -20
19 -4 37 -13 40 -20 3 -7 20 -19 39 -26 19 -8 35 -17 35 -22 0 -4 9 -8 20 -8
11 0 20 -3 20 -7 0 -12 51 -33 77 -33 13 0 26 -6 29 -14 3 -8 23 -17 45 -21
21 -4 39 -11 39 -15 0 -5 25 -17 55 -26 30 -10 55 -21 55 -26 0 -4 18 -8 40
-8 22 0 40 -4 40 -10 0 -5 9 -10 19 -10 11 0 23 -4 26 -10 3 -5 19 -10 36 -10
16 0 29 -4 29 -9 0 -11 32 -21 100 -31 51 -7 111 -22 235 -55 28 -8 79 -17
115 -20 36 -3 90 -11 120 -17 70 -14 750 -22 750 -9 0 10 107 31 166 31 21 1
50 7 64 15 14 8 37 14 53 15 15 0 27 4 27 8 0 9 65 25 142 37 21 3 44 12 52
20 8 8 31 15 50 15 20 0 36 4 36 8 0 13 47 32 80 32 16 0 35 7 43 15 8 7 28
17 43 21 16 3 34 12 39 19 9 11 44 22 90 29 11 1 21 10 23 19 2 9 12 19 23 22
10 4 19 11 19 16 0 5 15 9 33 9 21 0 36 7 44 19 11 17 40 34 154 90 16 8 29
21 29 28 0 7 9 13 20 13 11 0 20 5 20 10 0 6 7 10 15 10 8 0 15 5 15 10 0 6 7
10 15 10 7 0 18 6 22 13 4 7 25 23 45 37 21 14 38 29 38 33 0 5 5 5 10 2 6 -3
13 1 16 9 3 9 11 16 18 16 6 0 18 9 26 20 8 11 20 20 26 20 6 0 14 9 17 20 3
13 14 20 30 20 18 0 33 10 48 32 13 18 27 35 32 37 5 2 26 21 47 42 21 22 43
39 49 39 6 0 14 7 18 16 8 22 48 64 61 64 6 0 13 13 17 30 4 18 17 35 32 42
15 7 31 22 37 33 6 11 19 26 29 33 9 7 17 19 17 26 0 8 6 16 13 19 7 3 35 37
62 77 27 40 55 74 62 77 7 3 13 10 13 17 0 6 9 17 20 24 11 7 20 23 20 38 0
13 11 37 25 52 14 15 25 32 25 39 0 7 4 13 9 13 5 0 11 13 14 29 3 16 13 36
22 44 8 9 15 23 15 31 0 9 5 16 10 16 6 0 10 7 10 15 0 8 5 15 10 15 6 0 10 9
10 20 0 11 5 20 10 20 6 0 10 9 10 20 0 11 5 20 10 20 6 0 10 7 10 15 0 8 4
23 9 33 25 46 61 137 61 154 0 11 9 22 20 25 16 4 20 14 20 52 0 46 18 101 33
101 4 0 7 15 7 34 0 19 4 37 9 41 5 3 15 31 21 63 7 31 18 73 25 92 16 45 39
199 31 207 -3 3 -188 6 -410 5 -322 0 -408 -3 -421 -14 -49 -40 -95 -93 -95
-111 0 -7 -7 -22 -15 -33 -8 -10 -15 -30 -15 -43 0 -13 -9 -32 -21 -42 -11 -9
-20 -20 -20 -23 3 -20 -1 -26 -13 -26 -13 0 -26 -41 -26 -82 0 -11 -6 -26 -12
-33 -26 -29 -35 -41 -58 -83 -13 -23 -27 -42 -32 -42 -4 0 -8 -12 -8 -26 0
-17 -6 -28 -20 -31 -11 -3 -20 -13 -20 -23 0 -10 -3 -20 -8 -22 -13 -5 -72
-85 -72 -97 0 -6 -7 -11 -15 -11 -8 0 -15 -9 -15 -20 0 -11 -7 -20 -15 -20 -9
0 -19 -8 -22 -17 -7 -18 -47 -67 -71 -87 -7 -6 -40 -37 -72 -69 -32 -31 -64
-57 -70 -57 -5 0 -10 -7 -10 -15 0 -9 -8 -19 -17 -22 -10 -4 -22 -12 -26 -20
-4 -7 -15 -13 -22 -13 -8 0 -15 -8 -15 -19 0 -13 -9 -20 -30 -24 -16 -4 -45
-22 -64 -42 -19 -19 -40 -35 -46 -35 -7 0 -26 -11 -44 -25 -17 -14 -36 -29
-42 -34 -6 -5 -25 -12 -42 -16 -18 -3 -32 -13 -32 -21 0 -8 -10 -14 -23 -14
-13 0 -33 -9 -45 -20 -12 -11 -28 -20 -37 -20 -8 0 -15 -4 -15 -9 0 -4 -25
-16 -55 -26 -30 -9 -55 -21 -55 -26 0 -5 -7 -9 -15 -9 -24 0 -95 -24 -95 -32
0 -5 -18 -8 -40 -8 -22 0 -40 -4 -40 -10 0 -5 -9 -10 -20 -10 -11 0 -20 -4
-20 -10 0 -6 -32 -10 -75 -10 -60 0 -75 -3 -75 -15 0 -8 -1 -15 -2 -16 -2 0
-68 -5 -148 -11 -273 -20 -516 -13 -645 19 -33 9 -89 19 -125 24 -93 11 -130
20 -130 30 0 5 -9 9 -20 9 -11 0 -20 4 -20 9 0 4 -27 14 -60 21 -33 7 -60 16
-60 20 0 4 -20 13 -44 19 -25 6 -51 18 -60 26 -8 8 -21 15 -29 15 -8 0 -26 9
-40 20 -14 11 -33 20 -41 20 -16 0 -64 29 -94 57 -7 7 -24 16 -38 19 -13 3
-24 10 -24 15 0 5 -15 15 -34 23 -19 8 -47 28 -64 45 -16 17 -34 31 -40 31 -5
0 -12 6 -15 14 -3 8 -22 22 -41 31 -27 13 -36 24 -36 41 0 17 -6 24 -20 24
-11 0 -25 9 -32 20 -7 11 -17 20 -21 20 -14 0 -37 28 -37 45 0 9 -13 21 -30
26 -17 6 -30 17 -30 25 0 8 -4 14 -10 14 -5 0 -10 6 -10 14 0 8 -16 32 -35 53
-20 21 -44 47 -54 58 -10 11 -22 30 -26 43 -3 12 -13 22 -21 22 -8 0 -14 9
-14 20 0 11 -3 20 -7 20 -9 0 -33 49 -33 67 0 7 -6 13 -13 13 -7 0 -19 16 -26
35 -7 19 -16 35 -21 35 -4 0 -11 16 -14 36 -4 19 -14 38 -22 41 -7 3 -14 11
-14 17 0 18 -24 66 -32 66 -5 0 -8 15 -8 34 0 18 -9 45 -20 59 -11 14 -20 31
-20 39 0 7 -7 23 -15 35 -8 11 -18 53 -21 92 -5 47 -11 71 -19 71 -7 0 -16 17
-19 38 -16 90 -19 102 -27 108 -5 3 -9 38 -9 79 0 44 -4 75 -11 77 -15 5 -15
379 0 407 6 11 11 56 11 100 0 47 4 81 10 81 6 0 10 13 10 29 0 17 5 33 10 36
6 3 10 22 10 41 0 19 4 34 9 34 9 0 23 53 36 134 4 21 13 46 21 54 8 8 18 27
21 43 3 16 9 29 14 29 5 0 9 13 9 28 0 16 9 38 20 50 11 12 20 32 20 46 0 13
6 26 14 29 7 3 16 17 20 31 6 23 41 83 66 113 5 7 10 19 10 28 0 8 4 15 9 15
5 0 16 16 26 36 9 19 23 38 31 41 8 3 14 13 14 22 0 9 11 29 25 45 14 16 25
33 25 38 0 4 6 8 14 8 8 0 18 9 21 20 3 11 11 20 16 20 5 0 9 6 9 14 0 7 9 16
20 19 11 3 20 12 20 20 0 8 9 17 20 20 11 3 20 12 20 21 0 9 6 16 14 16 8 0
18 9 21 20 3 11 13 20 21 20 8 0 14 6 14 14 0 8 9 18 20 21 11 3 20 13 20 22
0 19 39 52 63 53 9 0 17 5 17 10 0 6 5 10 11 10 6 0 24 14 39 30 15 17 35 30
44 30 9 0 16 6 16 13 0 13 76 57 98 57 6 0 12 9 12 20 0 11 7 20 15 20 9 0 25
9 37 20 12 11 32 20 45 20 13 0 23 4 23 8 0 5 16 17 35 28 19 10 35 22 35 26
0 3 24 10 53 13 41 5 55 12 63 28 5 12 19 23 32 25 12 2 22 8 22 13 0 5 15 9
34 9 19 0 38 5 41 10 3 6 17 10 30 10 13 0 27 5 30 10 3 6 25 10 49 10 24 0
56 6 72 14 54 27 413 42 652 27 135 -8 217 -17 236 -27 16 -8 48 -14 72 -14
24 0 46 -4 49 -10 3 -5 17 -10 31 -10 13 0 24 -4 24 -10 0 -5 23 -10 50 -10
28 0 50 -4 50 -10 0 -5 9 -10 20 -10 11 0 20 -4 20 -10 0 -5 14 -10 31 -10 17
0 37 -7 45 -15 8 -8 33 -19 54 -25 22 -6 42 -15 45 -20 3 -6 15 -10 26 -10 10
0 19 -3 19 -7 0 -9 49 -33 67 -33 7 0 13 -4 13 -10 0 -5 7 -10 15 -10 8 0 15
-4 15 -10 0 -5 9 -10 19 -10 10 0 21 -6 24 -14 3 -7 17 -16 31 -20 15 -4 35
-14 45 -24 45 -42 86 -72 98 -72 7 0 13 -4 13 -10 0 -5 9 -10 20 -10 13 0 20
-7 20 -20 0 -12 7 -20 18 -20 9 0 30 -18 45 -40 16 -22 33 -40 38 -40 5 0 9
-7 9 -15 0 -8 9 -15 20 -15 13 0 20 -7 20 -20 0 -13 7 -20 20 -20 11 0 20 -6
20 -14 0 -8 16 -32 35 -53 19 -21 35 -46 35 -56 0 -11 9 -21 20 -24 11 -3 20
-13 20 -23 0 -10 3 -20 8 -22 16 -7 69 -87 96 -145 17 -35 33 -63 38 -63 4 0
8 -10 8 -23 0 -12 9 -29 20 -37 12 -8 20 -26 20 -42 0 -15 4 -28 9 -28 4 0 11
-15 14 -32 4 -18 9 -43 13 -55 l6 -23 -492 0 -492 0 -19 23 c-10 12 -18 28
-19 35 0 6 -3 12 -8 12 -4 0 -13 13 -20 29 -7 17 -26 36 -42 43 -16 7 -35 25
-41 41 -7 15 -26 35 -42 44 -17 8 -37 22 -45 29 -7 8 -18 14 -23 14 -5 0 -9 7
-9 15 0 8 -9 15 -20 15 -11 0 -20 5 -20 10 0 6 -7 10 -15 10 -8 0 -15 5 -15
10 0 6 -9 10 -20 10 -11 0 -20 4 -20 8 0 12 -46 32 -73 32 -12 0 -31 7 -41 15
-11 8 -29 15 -40 15 -21 0 -80 17 -108 31 -23 12 -418 12 -418 0 0 -5 -30 -14
-67 -21 -67 -11 -166 -50 -178 -70 -3 -6 -17 -10 -30 -10 -14 0 -26 -7 -29
-18 -4 -10 -22 -25 -41 -32 -19 -8 -35 -17 -35 -22 0 -4 -6 -8 -13 -8 -6 0
-25 -16 -41 -35 -16 -19 -33 -35 -38 -35 -10 0 -57 -51 -58 -63 0 -12 -47 -57
-59 -57 -6 0 -13 -15 -17 -34 -3 -19 -12 -37 -20 -40 -8 -3 -14 -10 -14 -16 0
-5 -9 -19 -20 -30 -11 -11 -20 -29 -20 -40 0 -12 -9 -30 -20 -42 -13 -14 -20
-36 -20 -60 0 -21 -4 -38 -10 -38 -5 0 -10 -9 -10 -19 0 -11 -4 -22 -9 -25 -5
-3 -11 -34 -15 -68 -18 -170 -18 -188 -7 -188 6 0 11 -9 11 -20 0 -20 7 -20
1788 -22 1921 -3 1882 -2 1990 -13 52 -6 72 -5 72 4 0 6 12 11 26 11 15 0 33
8 40 18 26 33 11 258 -19 288 -4 4 -7 32 -7 62 0 29 -6 66 -14 80 -7 15 -19
54 -25 87 -6 33 -15 61 -21 63 -5 2 -10 14 -10 27 0 13 -4 27 -10 30 -5 3 -10
15 -10 26 0 10 -4 19 -10 19 -5 0 -10 11 -10 24 0 13 -9 45 -20 70 -10 25 -21
57 -23 71 -1 13 -6 27 -9 31 -12 11 -56 108 -62 137 -4 15 -13 27 -21 27 -10
0 -15 10 -15 30 0 17 -9 40 -20 52 -11 12 -20 30 -20 40 0 10 -6 21 -14 24 -8
3 -20 20 -27 37 -7 18 -25 48 -39 67 -15 19 -30 47 -34 63 -3 15 -13 27 -21
27 -8 0 -15 7 -15 15 0 9 -9 25 -20 37 -11 12 -20 30 -20 40 0 10 -7 18 -16
18 -9 0 -18 9 -21 20 -3 11 -12 20 -19 20 -8 0 -14 8 -14 18 0 10 -9 24 -20
32 -11 8 -20 20 -20 27 0 7 -9 18 -20 25 -11 7 -20 21 -20 30 0 10 -7 18 -16
18 -9 0 -18 9 -21 20 -3 11 -11 20 -18 20 -8 0 -17 9 -20 20 -3 11 -13 20 -21
20 -8 0 -14 6 -14 14 0 8 -9 18 -20 21 -11 3 -20 10 -20 15 0 12 -48 60 -60
60 -5 0 -11 9 -15 19 -3 11 -12 22 -20 25 -8 3 -15 12 -15 21 0 8 -9 15 -20
15 -11 0 -20 6 -20 14 0 8 -9 18 -20 21 -11 3 -20 13 -20 21 0 8 -7 14 -16 14
-9 0 -18 9 -21 20 -3 11 -12 20 -19 20 -8 0 -23 9 -34 20 -11 11 -29 20 -40
20 -12 0 -20 7 -20 16 0 9 -9 18 -20 21 -11 3 -20 12 -20 19 0 8 -5 14 -11 14
-11 0 -92 60 -97 73 -2 4 -10 7 -18 7 -8 0 -24 9 -36 20 -12 11 -30 20 -40 20
-10 0 -18 5 -18 10 0 6 -18 17 -40 26 -22 9 -40 19 -40 23 0 4 -16 13 -35 21
-19 8 -35 17 -35 22 0 4 -10 8 -23 8 -13 0 -33 9 -45 20 -12 11 -30 20 -41 20
-11 0 -35 9 -53 20 -18 11 -40 20 -50 20 -9 0 -18 4 -20 10 -1 5 -50 26 -108
45 -58 20 -113 40 -122 45 -10 6 -29 10 -43 10 -14 0 -25 3 -25 8 0 11 -76 32
-119 32 -22 0 -41 5 -43 12 -4 12 -7 13 -126 28 -42 5 -100 14 -127 19 -28 5
-136 14 -240 20 -105 7 -199 13 -210 15 -11 1 -123 -3 -250 -11z"/>
<path d="M2900 2910 c-14 -4 -93 -8 -175 -9 -103 -1 -155 -5 -163 -13 -8 -8
-12 -45 -12 -101 0 -80 2 -89 19 -94 14 -4 23 -19 30 -54 11 -51 60 -156 83
-180 27 -28 58 -78 58 -93 0 -9 6 -16 13 -16 27 0 59 -60 61 -114 1 -44 -4
-59 -35 -101 -19 -28 -38 -58 -42 -67 -3 -10 -13 -18 -22 -18 -8 0 -15 -9 -15
-20 0 -11 -4 -20 -10 -20 -5 0 -10 -9 -10 -20 0 -11 -4 -20 -10 -20 -5 0 -10
-7 -10 -15 0 -8 -4 -15 -9 -15 -6 0 -18 -26 -28 -57 -9 -32 -20 -60 -23 -63
-3 -3 -6 -14 -8 -25 -2 -11 -12 -27 -23 -37 -16 -13 -19 -29 -19 -95 0 -48 5
-84 12 -91 17 -17 1069 -17 1086 0 7 7 12 43 12 92 0 69 -3 83 -25 112 -14 18
-25 43 -25 56 0 13 -9 41 -20 63 -11 22 -20 44 -20 50 0 5 -14 24 -30 42 -17
18 -30 39 -30 47 0 8 -3 16 -8 18 -15 6 -80 94 -101 136 l-21 42 32 60 c25 47
37 60 55 60 20 0 23 5 23 35 0 24 6 39 20 47 11 7 20 18 20 25 0 7 5 13 10 13
6 0 10 7 10 15 0 8 5 15 10 15 6 0 10 7 10 15 0 9 9 33 20 55 11 22 20 53 20
69 0 18 9 39 23 53 27 27 42 113 29 163 -15 56 -32 59 -402 61 -184 1 -346 -2
-360 -6z m430 -238 c53 -8 64 -34 30 -69 -11 -12 -20 -27 -20 -33 0 -5 -4 -10
-9 -10 -5 0 -14 -13 -21 -29 -6 -16 -18 -32 -26 -35 -8 -3 -14 -12 -14 -21 0
-8 -4 -15 -10 -15 -5 0 -10 -7 -10 -15 0 -8 -4 -15 -10 -15 -5 0 -10 -8 -10
-18 0 -10 -9 -24 -20 -32 -14 -10 -20 -26 -20 -52 0 -20 -4 -40 -10 -43 -5 -3
-10 -33 -10 -65 0 -32 5 -62 10 -65 6 -3 10 -28 10 -56 0 -41 3 -49 19 -49 10
0 21 -7 25 -15 7 -19 88 -129 99 -133 4 -2 7 -11 7 -21 0 -9 9 -23 20 -31 12
-8 20 -26 20 -42 l0 -28 -234 0 c-128 0 -248 -3 -265 -6 -29 -6 -31 -5 -31 24
0 30 18 64 80 149 16 23 30 47 30 53 0 5 5 10 10 10 6 0 10 6 10 13 0 6 9 23
20 37 11 14 20 33 20 42 0 9 4 18 9 20 10 3 17 92 13 169 -1 29 -9 53 -22 67
-11 12 -20 26 -20 32 0 10 -23 46 -65 101 -11 15 -29 39 -40 54 -11 16 -25 34
-32 40 -10 11 -17 43 -14 72 1 6 11 14 24 16 36 7 408 6 457 -1z"/>
</g>
</svg>
